<?xml version="1.0" encoding="utf-8"?>
<!-- Generator: Adobe Illustrator 25.1.0, SVG Export Plug-In . SVG Version: 6.00 Build 0)  -->
<svg version="1.1" baseProfile="tiny" id="Capa_1" xmlns="http://www.w3.org/2000/svg" xmlns:xlink="http://www.w3.org/1999/xlink"
	 x="0px" y="0px" viewBox="0 0 159.8 20.9" overflow="visible" xml:space="preserve">
<g>
	<g>
		<path d="M0,0.6h15.8v4.6H5.4v3h9.4v4.3H5.4v3.1h10.6v4.6H0V0.6z M18.5,0.6H24v14.9h9.5v4.8h-15V0.6z M39,10.5L39,10.5
			c0-5.8,4.4-10.3,10.3-10.3c4,0,6.6,1.7,8.3,4.1l-4.1,3.2c-1.1-1.4-2.4-2.3-4.3-2.3c-2.8,0-4.7,2.4-4.7,5.2v0
			c0,2.9,1.9,5.3,4.7,5.3c2.1,0,3.3-1,4.4-2.4l4.1,2.9c-1.9,2.6-4.3,4.4-8.7,4.4C43.6,20.7,39,16.4,39,10.5 M81.4,0.6h9.3
			c3,0,5.1,0.8,6.4,2.1c1.2,1.2,1.7,2.6,1.7,4.6v0c0,3-1.6,5-4,6.1l4.7,6.9h-6.3l-4-6h-2.4v6h-5.5L81.4,0.6L81.4,0.6z M90.4,10.1
			c1.8,0,2.9-0.9,2.9-2.3v0c0-1.6-1.2-2.4-2.9-2.4h-3.6v4.7H90.4z M101.3,0.6h9.3c3,0,5.1,0.8,6.4,2.1c1.2,1.2,1.7,2.6,1.7,4.6v0
			c0,3-1.6,5-4.1,6.1l4.7,6.9h-6.3l-4-6h-2.4v6h-5.5L101.3,0.6L101.3,0.6z M110.4,10.1c1.8,0,2.9-0.9,2.9-2.3v0
			c0-1.6-1.2-2.4-2.9-2.4h-3.6v4.7H110.4z M121.2,0.6H137v4.6h-10.4v3h9.4v4.3h-9.4v3.1h10.6v4.6h-15.9V0.6z M138.6,10.5L138.6,10.5
			c0-5.7,4.5-10.3,10.6-10.3c6.1,0,10.6,4.5,10.6,10.2v0c0,5.7-4.5,10.2-10.6,10.2C143.1,20.7,138.6,16.2,138.6,10.5 M154.2,10.5
			L154.2,10.5c0-2.9-2-5.4-5-5.4s-5,2.4-5,5.3v0c0,2.8,2,5.3,5.1,5.3C152.2,15.8,154.2,13.4,154.2,10.5"/>
	</g>
	<g>
		<path fill="#C90022" d="M58,10.5L58,10.5C58,4.7,62.6,0,68.8,0C75,0,79.6,4.6,79.6,10.4v0c0,5.8-4.6,10.4-10.9,10.4
			C62.6,20.9,58,16.3,58,10.5z"/>
		<g>
			<path fill="#FFFFFF" d="M63.3,12.4l2.5-1.9c0.6-0.5,0.9-0.8,0.9-1.2c0-0.4-0.3-0.7-0.8-0.7c-0.4,0-0.8,0.3-1.3,0.9l-1.3-1.1
				c0.7-0.9,1.4-1.4,2.7-1.4c1.5,0,2.5,0.9,2.5,2.1v0c0,1.1-0.6,1.6-1.6,2.4l-1.2,0.8h2.8v1.5h-5.3L63.3,12.4L63.3,12.4z"/>
			<path fill="#FFFFFF" d="M68.8,12.9l1.1-1.3c0.5,0.5,1.1,0.7,1.6,0.7c0.6,0,1-0.3,1-0.8v0c0-0.5-0.4-0.8-1-0.8
				c-0.4,0-0.8,0.1-1.1,0.3l-1.1-0.6l0.2-3.4H74v1.5h-3l0,1c0.3-0.1,0.6-0.2,1.1-0.2c1.2,0,2.3,0.7,2.3,2.1v0c0,1.5-1.1,2.4-2.8,2.4
				C70.3,13.9,69.5,13.5,68.8,12.9z"/>
		</g>
	</g>
</g>
</svg>
